<?xml version="1.0" encoding="utf-8"?>
<!-- Generator: Adobe Illustrator 24.1.3, SVG Export Plug-In . SVG Version: 6.00 Build 0)  -->
<svg version="1.1" id="Layer_1" xmlns="http://www.w3.org/2000/svg" xmlns:xlink="http://www.w3.org/1999/xlink" x="0px" y="0px"
	 viewBox="0 0 1417.32 1417.32" style="enable-background:new 0 0 1417.32 1417.32;" xml:space="preserve">
<style type="text/css">
	.st0{fill:url(#SVGID_1_);stroke:#231F20;stroke-miterlimit:10;}
	.st1{fill:url(#SVGID_2_);}
	.st2{fill:url(#SVGID_3_);}
	.st3{fill:url(#SVGID_4_);}
	.st4{fill:none;}
	.st5{fill:url(#SVGID_5_);}
	.st6{fill:url(#SVGID_6_);}
	.st7{fill:url(#SVGID_7_);}
	.st8{fill:url(#SVGID_8_);}
	.st9{fill:url(#SVGID_9_);}
</style>
<linearGradient id="SVGID_1_" gradientUnits="userSpaceOnUse" x1="188.5584" y1="708.6614" x2="1228.7644" y2="708.6614">
	<stop  offset="0" style="stop-color:#533412"/>
	<stop  offset="0.4798" style="stop-color:#3A2919"/>
	<stop  offset="1" style="stop-color:#231F20"/>
</linearGradient>
<rect x="188.56" y="81.13" class="st0" width="1040.21" height="1255.06"/>
<linearGradient id="SVGID_2_" gradientUnits="userSpaceOnUse" x1="635.3394" y1="807.4229" x2="688.9031" y2="1088.2422">
	<stop  offset="0" style="stop-color:#FFF23A"/>
	<stop  offset="0.0265" style="stop-color:#FEE62D"/>
	<stop  offset="0.0774" style="stop-color:#FED41A"/>
	<stop  offset="0.1298" style="stop-color:#FDC90F"/>
	<stop  offset="0.1857" style="stop-color:#FDC60B"/>
	<stop  offset="0.3439" style="stop-color:#F9B227"/>
	<stop  offset="0.5045" style="stop-color:#F28F3F"/>
	<stop  offset="1" style="stop-color:#E83E39"/>
</linearGradient>
<path class="st1" d="M864.66,1054.62c-27.45,5.84-55.92,8.91-85.09,8.91c-18.36,0-36.43-1.21-54.15-3.58
	c-0.81-0.09-1.59-0.2-2.37-0.31c-41.43-5.76-80.84-17.71-117.3-34.96c-68.03-32.09-125.72-82.47-166.78-144.77
	c0.16-0.11,0.34-0.22,0.49-0.34c7.28-5.02,14.73-9.79,22.35-14.29c0.69-0.43,1.41-0.85,2.13-1.25c1.41-0.85,2.84-1.66,4.25-2.46
	c1.43-0.83,2.87-1.63,4.32-2.42c1.21-0.69,2.44-1.37,3.67-2.02c0.31-0.2,0.65-0.38,0.99-0.54c1.21-0.65,2.42-1.3,3.65-1.93
	c1.32-0.72,2.66-1.41,4.01-2.08c2.08-1.07,4.19-2.13,6.31-3.16c0.72-0.36,1.43-0.72,2.15-1.05c1.66-0.81,3.31-1.59,4.99-2.35
	c3.22-1.52,6.47-2.98,9.76-4.37c2.15-0.94,4.3-1.86,6.47-2.75c1.43-0.6,2.89-1.21,4.34-1.77c5.84-2.35,11.78-4.55,17.78-6.61
	c1.3-0.47,2.6-0.92,3.92-1.34c0.13-0.07,0.29-0.11,0.45-0.16c2.6-0.85,5.2-1.7,7.82-2.51c2.71-0.85,5.44-1.66,8.2-2.44
	c2.64-0.76,5.33-1.5,7.99-2.22c0.16-0.04,0.31-0.09,0.49-0.11c2.64-0.72,5.31-1.39,7.99-2.04c0.4-0.11,0.83-0.2,1.25-0.29
	c1.52-0.38,3.05-0.74,4.59-1.1c2.49-0.56,4.97-1.1,7.5-1.61c3.14-0.65,6.27-1.25,9.43-1.84c1.34-0.25,2.69-0.49,4.05-0.72
	c0.07,0,0.13-0.02,0.22-0.04c2.42-0.4,4.86-0.81,7.32-1.16c2.49-0.38,4.97-0.74,7.46-1.07c17.82-2.4,36.03-3.63,54.5-3.63
	c22.28,0,44.14,1.79,65.46,5.24c9.76,1.57,19.41,3.49,28.91,5.73c5.98,1.43,11.91,2.98,17.8,4.66c7.3,2.08,14.53,4.37,21.68,6.87
	c2.87,0.99,5.71,1.99,8.53,3.05c0.27,0.09,0.52,0.2,0.78,0.29c14.09,5.28,27.79,11.33,41.07,18.07c-1.93,5.06-3.69,10.21-5.28,15.43
	c-2.89,9.47-5.24,19.19-7.01,29.09c-2.62,14.49-3.96,29.42-3.96,44.67c0,6.74,0.27,13.44,0.78,20.04
	c1.68,21.47,6.07,42.19,12.83,61.81C855.12,1034.05,859.56,1044.53,864.66,1054.62z"/>
<linearGradient id="SVGID_3_" gradientUnits="userSpaceOnUse" x1="611.95" y1="514.1052" x2="612.4546" y2="514.887">
	<stop  offset="0" style="stop-color:#FFF23A"/>
	<stop  offset="0.0265" style="stop-color:#FEE62D"/>
	<stop  offset="0.0774" style="stop-color:#FED41A"/>
	<stop  offset="0.1298" style="stop-color:#FDC90F"/>
	<stop  offset="0.1857" style="stop-color:#FDC60B"/>
	<stop  offset="0.3439" style="stop-color:#F9B227"/>
	<stop  offset="0.5045" style="stop-color:#F28F3F"/>
	<stop  offset="1" style="stop-color:#E83E39"/>
</linearGradient>
<path class="st2" d="M614.29,514.14c-1.25,0.43-2.51,0.9-3.74,1.37c0.22-0.31,0.47-0.63,0.72-0.92
	C612.27,514.43,613.28,514.28,614.29,514.14z"/>
<linearGradient id="SVGID_4_" gradientUnits="userSpaceOnUse" x1="913.2852" y1="791.9342" x2="732.1271" y2="527.4433">
	<stop  offset="0" style="stop-color:#FFF23A"/>
	<stop  offset="0" style="stop-color:#FEE62D"/>
	<stop  offset="0" style="stop-color:#FED41A"/>
	<stop  offset="0" style="stop-color:#FDC90F"/>
	<stop  offset="0" style="stop-color:#FDC60B"/>
	<stop  offset="0" style="stop-color:#F28F3F"/>
	<stop  offset="0" style="stop-color:#ED693C"/>
	<stop  offset="0" style="stop-color:#B2732D"/>
	<stop  offset="6.473243e-03" style="stop-color:#B37530"/>
	<stop  offset="0.1529" style="stop-color:#C79966"/>
	<stop  offset="0.3005" style="stop-color:#D8B895"/>
	<stop  offset="0.4465" style="stop-color:#E6D2BB"/>
	<stop  offset="0.5905" style="stop-color:#F1E6D9"/>
	<stop  offset="0.7321" style="stop-color:#F9F4EE"/>
	<stop  offset="0.8699" style="stop-color:#FDFCFB"/>
	<stop  offset="1" style="stop-color:#FFFFFF"/>
</linearGradient>
<path class="st3" d="M943.91,687.62c-5.51,11.8-11.91,23.09-19.12,33.77c-26.47,39.28-63.71,70.7-107.49,90
	c1.68-11.67,2.53-23.6,2.53-35.74c0-28.01-4.57-54.98-13.01-80.17c-1.25-3.67-2.55-7.3-3.96-10.88
	c-5.89-15.27-13.26-29.81-21.9-43.44c-7.48-11.82-15.9-22.95-25.19-33.32c-13.53-15.18-28.91-28.71-45.77-40.22
	c-13.75-0.81-27.03-3.38-39.59-7.52c-4.01-1.32-7.73-2.73-11.08-4.12c-0.69-0.29-1.39-0.58-2.06-0.9c-0.94-0.38-1.86-0.78-2.73-1.19
	c-1.25-0.58-2.49-1.16-3.69-1.75c-0.18-0.09-0.34-0.16-0.52-0.25c-1.1-0.56-2.17-1.1-3.25-1.66c-0.13-0.04-0.25-0.11-0.36-0.18
	c-0.87-0.47-1.72-0.94-2.58-1.39c-0.27-0.13-0.52-0.29-0.76-0.43c-0.36-0.2-0.67-0.38-0.99-0.56c-0.22-0.13-0.47-0.25-0.67-0.38
	c-0.31-0.18-0.63-0.36-0.9-0.52c-0.25-0.16-0.49-0.31-0.74-0.45c-0.11-0.07-0.22-0.13-0.34-0.2c-0.65-0.38-1.3-0.78-1.95-1.21
	c-4.46-2.82-8.13-5.49-10.91-7.64c-0.09,0.04-0.18,0.07-0.27,0.11c-2.93-2.17-5.8-4.43-8.58-6.81c-0.92-0.78-1.81-1.57-2.71-2.37
	c-2.84-2.55-5.6-5.2-8.26-7.95c1.12-1.61,2.28-3.2,3.47-4.77c27.81-10.59,57.98-16.39,89.51-16.39
	C817.28,499.12,915.79,579.17,943.91,687.62z"/>
<path class="st4" d="M637.8,544.93c-0.74-0.45-1.48-0.92-2.22-1.37c-3.07-1.95-6.05-3.99-8.96-6.16c0.09-0.04,0.18-0.07,0.27-0.11
	C629.67,539.45,633.34,542.11,637.8,544.93z"/>
<linearGradient id="SVGID_5_" gradientUnits="userSpaceOnUse" x1="543.6021" y1="555.6421" x2="626.9338" y2="814.6951">
	<stop  offset="0" style="stop-color:#FFF23A"/>
	<stop  offset="0.0265" style="stop-color:#FEE62D"/>
	<stop  offset="0.0774" style="stop-color:#FED41A"/>
	<stop  offset="0.1298" style="stop-color:#FDC90F"/>
	<stop  offset="0.1857" style="stop-color:#FDC60B"/>
	<stop  offset="0.3439" style="stop-color:#F9B227"/>
	<stop  offset="0.5045" style="stop-color:#F28F3F"/>
	<stop  offset="1" style="stop-color:#E83E39"/>
</linearGradient>
<path class="st5" d="M819.83,775.65c0,12.14-0.85,24.07-2.53,35.74c-2.64,1.16-5.31,2.28-7.99,3.36
	c-6.29,2.53-12.72,4.81-19.28,6.81c-2.66,0.83-5.33,1.59-8.02,2.33c-5.89-1.68-11.82-3.22-17.8-4.66c-0.22-0.04-0.45-0.11-0.67-0.16
	c-9.27-2.17-18.7-4.05-28.24-5.58c-21.32-3.45-43.17-5.24-65.46-5.24c-18.47,0-36.68,1.23-54.5,3.63c-2.49,0.34-4.97,0.69-7.46,1.07
	c-2.46,0.36-4.9,0.76-7.32,1.16c-0.09,0.02-0.16,0.04-0.22,0.04c-1.37,0.22-2.71,0.47-4.05,0.72c-3.16,0.58-6.29,1.19-9.43,1.84
	c-2.53,0.52-5.02,1.05-7.5,1.61c-1.55,0.36-3.07,0.72-4.59,1.1c-0.43,0.09-0.85,0.18-1.25,0.29c-2.69,0.65-5.35,1.32-7.99,2.04
	c-0.18,0.02-0.34,0.07-0.49,0.11c-2.69,0.72-5.35,1.43-7.99,2.22c-2.75,0.78-5.49,1.59-8.2,2.44c-2.62,0.81-5.22,1.66-7.82,2.51
	c-0.16,0.04-0.31,0.09-0.45,0.16c-1.32,0.43-2.62,0.87-3.92,1.34c-6,2.06-11.94,4.25-17.78,6.61c-1.46,0.56-2.91,1.16-4.34,1.77
	c-2.17,0.87-4.32,1.79-6.47,2.75c-3.29,1.39-6.54,2.84-9.76,4.37c-1.68,0.76-3.34,1.57-4.99,2.35c-0.72,0.34-1.43,0.69-2.15,1.05
	c-2.13,1.03-4.23,2.08-6.31,3.16c-1.34,0.67-2.69,1.39-4.01,2.08c-1.23,0.6-2.44,1.25-3.65,1.93c-0.34,0.16-0.67,0.34-0.99,0.54
	c-1.23,0.65-2.46,1.32-3.67,2.02c-1.46,0.78-2.89,1.59-4.32,2.42c-1.41,0.81-2.84,1.61-4.25,2.46c-0.72,0.4-1.43,0.83-2.13,1.25
	c-1.95,1.14-3.9,2.33-5.82,3.52c-1.93,1.19-3.83,2.37-5.73,3.61c-3.63,2.33-7.23,4.7-10.79,7.17c-0.16,0.11-0.34,0.22-0.49,0.34
	c-1.23-1.88-2.46-3.78-3.67-5.69c-6-9.45-11.62-19.17-16.84-29.13c1.95-21.68,5.62-42.86,10.82-63.42
	c5.33-21,12.27-41.36,20.71-60.91v-0.02c6.58-15.23,14.06-30.01,22.39-44.2c0.11-0.2,0.25-0.43,0.4-0.69
	c0.18-0.29,0.36-0.6,0.54-0.9c0.29-0.49,0.63-1.07,1.01-1.7c0.4-0.65,0.78-1.3,1.16-1.93c0.02-0.04,0.04-0.09,0.07-0.13
	c0.92-1.5,1.97-3.2,3.14-5.04c38.96-61.29,92.98-95.75,110.13-106.46c5.22-3.25,9.41-5.69,11.2-6.72c1.14-0.87,2.33-1.75,3.61-2.66
	c2.93-2.08,6.2-4.21,9.83-6.29c1.95-1.12,3.87-2.17,5.76-3.11c2.58-1.32,5.06-2.49,7.41-3.49c2.91,2.17,5.89,4.21,8.96,6.16
	c0.74,0.45,1.48,0.92,2.22,1.37c0.65,0.43,1.3,0.83,1.95,1.21c0.11,0.07,0.22,0.13,0.34,0.2c0.2,0.13,0.47,0.29,0.74,0.45
	c0.27,0.16,0.58,0.34,0.9,0.52c0.2,0.13,0.45,0.25,0.67,0.38c0.31,0.18,0.63,0.36,0.99,0.56c0.25,0.13,0.49,0.29,0.76,0.43
	c0.76,0.45,1.63,0.9,2.58,1.39c0.11,0.07,0.22,0.13,0.36,0.18c1.01,0.54,2.08,1.1,3.25,1.66c0.18,0.09,0.34,0.16,0.52,0.25
	c1.16,0.58,2.4,1.16,3.69,1.75c0.87,0.4,1.79,0.81,2.73,1.19c0.67,0.31,1.37,0.6,2.06,0.9c3.36,1.39,7.08,2.8,11.08,4.12
	c12.56,4.14,25.84,6.72,39.59,7.52c16.86,11.51,32.25,25.04,45.77,40.22c9.29,10.37,17.71,21.5,25.19,33.32
	c8.64,13.64,16.01,28.17,21.9,43.44c1.41,3.58,2.71,7.21,3.96,10.88C815.26,720.68,819.83,747.64,819.83,775.65z"/>
<path class="st4" d="M637.8,544.93c-0.74-0.45-1.48-0.92-2.22-1.37c-3.07-1.95-6.05-3.99-8.96-6.16c0.09-0.04,0.18-0.07,0.27-0.11
	C629.67,539.45,633.34,542.11,637.8,544.93z"/>
<linearGradient id="SVGID_6_" gradientUnits="userSpaceOnUse" x1="934.012" y1="1057.7206" x2="914.0847" y2="889.2435">
	<stop  offset="0" style="stop-color:#FFF23A"/>
	<stop  offset="0" style="stop-color:#FEE62D"/>
	<stop  offset="0" style="stop-color:#FED41A"/>
	<stop  offset="0" style="stop-color:#FDC90F"/>
	<stop  offset="0" style="stop-color:#FDC60B"/>
	<stop  offset="0" style="stop-color:#F28F3F"/>
	<stop  offset="0" style="stop-color:#ED693C"/>
	<stop  offset="0" style="stop-color:#B2732D;stop-opacity:0.8"/>
	<stop  offset="0.0355" style="stop-color:#BA8243;stop-opacity:0.8071"/>
	<stop  offset="0.1162" style="stop-color:#CA9F6F;stop-opacity:0.8232"/>
	<stop  offset="0.203" style="stop-color:#D8B996;stop-opacity:0.8406"/>
	<stop  offset="0.2948" style="stop-color:#E4CFB6;stop-opacity:0.859"/>
	<stop  offset="0.393" style="stop-color:#EEE0D1;stop-opacity:0.8786"/>
	<stop  offset="0.5001" style="stop-color:#F6EEE5;stop-opacity:0.9"/>
	<stop  offset="0.6205" style="stop-color:#FBF8F4;stop-opacity:0.9241"/>
	<stop  offset="0.7653" style="stop-color:#FEFDFC;stop-opacity:0.9531"/>
	<stop  offset="1" style="stop-color:#FFFFFF"/>
</linearGradient>
<path class="st6" d="M1010.44,991.88c-43.29,29.83-92.62,51.48-145.78,62.75c-14.33-28.42-23.45-59.9-26.07-93.22
	c-0.51-6.61-0.78-13.3-0.78-20.04c0-15.25,1.34-30.19,3.96-44.67c2.73-15.36,6.87-30.25,12.29-44.52
	c20.24,10.28,39.48,22.19,57.6,35.54c26.49,19.57,50.54,42.28,71.59,67.56C992.98,966.93,1002.05,979.16,1010.44,991.88z"/>
<linearGradient id="SVGID_7_" gradientUnits="userSpaceOnUse" x1="524.8112" y1="814.1174" x2="673.3608" y2="863.03">
	<stop  offset="0" style="stop-color:#FFF23A;stop-opacity:0"/>
	<stop  offset="0.0108" style="stop-color:#FFF03A;stop-opacity:0.0108"/>
	<stop  offset="0.4982" style="stop-color:#F39139;stop-opacity:0.4982"/>
	<stop  offset="0.8383" style="stop-color:#EB5539;stop-opacity:0.8383"/>
	<stop  offset="1" style="stop-color:#E83E39"/>
</linearGradient>
<path class="st7" d="M803.69,830.76c-7.14-2.51-14.38-4.79-21.68-6.87c-5.89-1.68-11.82-3.22-17.8-4.66
	c-9.49-2.24-19.15-4.17-28.91-5.73c-21.32-3.45-43.17-5.24-65.46-5.24c-18.47,0-36.68,1.23-54.5,3.63
	c-2.49,0.34-4.97,0.69-7.46,1.07c-2.46,0.36-4.9,0.76-7.32,1.16c-0.09,0.02-0.16,0.04-0.22,0.04c-1.37,0.22-2.71,0.47-4.05,0.72
	c-3.16,0.58-6.29,1.19-9.43,1.84c-2.53,0.52-5.02,1.05-7.5,1.61c-1.55,0.36-3.07,0.72-4.59,1.1c-0.43,0.09-0.85,0.18-1.25,0.29
	c-2.69,0.65-5.35,1.32-7.99,2.04c-0.18,0.02-0.34,0.07-0.49,0.11c-2.69,0.72-5.35,1.43-7.99,2.22c-2.75,0.78-5.49,1.59-8.2,2.44
	c-2.62,0.81-5.22,1.66-7.82,2.51c-0.16,0.04-0.31,0.09-0.45,0.16c-1.32,0.43-2.62,0.87-3.92,1.34c-6,2.06-11.94,4.25-17.78,6.61
	c-1.46,0.56-2.91,1.16-4.34,1.77c-2.17,0.9-4.32,1.81-6.47,2.75c-3.29,1.39-6.54,2.84-9.76,4.37c-1.68,0.76-3.34,1.55-4.99,2.35
	c-0.72,0.34-1.43,0.69-2.15,1.05c-2.13,1.03-4.23,2.08-6.31,3.16c-1.34,0.67-2.69,1.37-4.01,2.08c-1.23,0.63-2.44,1.28-3.65,1.93
	c-0.34,0.16-0.67,0.34-0.99,0.54c-1.23,0.65-2.46,1.32-3.67,2.02c-1.46,0.78-2.89,1.59-4.32,2.42c-1.41,0.81-2.84,1.61-4.25,2.46
	c-0.72,0.4-1.43,0.83-2.13,1.25c-1.95,1.14-3.9,2.33-5.82,3.52c-1.93,1.19-3.83,2.37-5.73,3.61c-3.63,2.33-7.23,4.7-10.79,7.17
	c-1.41-1.77-2.8-3.56-4.17-5.35c-6-9.45-11.62-19.17-16.84-29.13c1.95-21.68,5.62-42.86,10.82-63.42c0.09-0.02,0.16-0.07,0.25-0.09
	c0.34-0.16,0.69-0.29,1.05-0.38c1.28-0.47,2.58-0.94,3.87-1.39c1.41-0.52,2.84-1.01,4.28-1.48c2.22-0.76,4.46-1.5,6.7-2.22
	c0.76-0.25,1.52-0.52,2.28-0.74c1.75-0.56,3.52-1.1,5.28-1.61c3.4-1.03,6.83-2.02,10.28-2.91c2.26-0.63,4.52-1.21,6.81-1.79
	c1.5-0.38,3.02-0.78,4.55-1.12c6.14-1.48,12.32-2.8,18.56-3.99c1.34-0.27,2.69-0.54,4.05-0.76c0.16-0.04,0.31-0.07,0.47-0.09
	c2.69-0.47,5.4-0.94,8.11-1.34c2.8-0.47,5.62-0.87,8.46-1.25c2.71-0.36,5.49-0.72,8.22-1.03c0.16-0.02,0.31-0.04,0.52-0.04
	c2.71-0.34,5.44-0.6,8.2-0.85c0.4-0.07,0.85-0.09,1.28-0.11c1.57-0.16,3.13-0.29,4.7-0.43c2.55-0.2,5.08-0.38,7.66-0.52
	c3.2-0.2,6.38-0.34,9.58-0.47c1.37-0.04,2.73-0.09,4.12-0.11c0.07,0,0.13,0,0.22-0.02c2.46-0.04,4.93-0.09,7.41-0.09
	c2.53-0.02,5.04-0.02,7.55,0c17.98,0.2,36.16,1.61,54.46,4.28c22.03,3.2,43.42,8.13,64.02,14.6c9.43,2.96,18.7,6.25,27.77,9.83
	c5.71,2.28,11.38,4.68,16.95,7.19c9.72,4.34,19.19,9.11,28.46,14.17c0.25,0.11,0.49,0.27,0.74,0.38c8.15,4.5,16.12,9.27,23.89,14.26
	C794.66,824.53,799.21,827.6,803.69,830.76z"/>
<linearGradient id="SVGID_8_" gradientUnits="userSpaceOnUse" x1="691.3203" y1="359.5482" x2="915.0702" y2="706.2376">
	<stop  offset="0" style="stop-color:#FFF23A"/>
	<stop  offset="0.0265" style="stop-color:#FEE62D"/>
	<stop  offset="0.0774" style="stop-color:#FED41A"/>
	<stop  offset="0.1298" style="stop-color:#FDC90F"/>
	<stop  offset="0.1857" style="stop-color:#FDC60B"/>
	<stop  offset="0.3439" style="stop-color:#F9B227"/>
	<stop  offset="0.5045" style="stop-color:#F28F3F"/>
	<stop  offset="1" style="stop-color:#E83E39"/>
</linearGradient>
<path class="st8" d="M967.63,580.83c0,22.24-2.89,43.78-8.31,64.31c-3.87,14.73-9.05,28.93-15.41,42.48
	c-1.43-5.51-3.05-10.93-4.84-16.28c-33.34-100.1-127.75-172.23-239.02-172.23c-30.12,0-59.01,5.28-85.77,15.03
	c-1.25,0.43-2.51,0.9-3.74,1.37c0.22-0.31,0.47-0.63,0.72-0.92c2.82-3.72,5.82-7.28,9-10.7c11.73-12.79,25.6-23.58,41.02-31.87
	c8.87-47.72,39.52-87.8,81.26-109.55c5.06-10.32,10.79-20.24,17.18-29.69c8.96-13.3,19.17-25.71,30.45-37.04
	c9.94,12.36,18.05,26.31,23.83,41.36c1.03,2.6,1.95,5.24,2.82,7.9c0.65,1.93,1.23,3.85,1.77,5.82c5.04,2.26,10.01,4.68,14.87,7.26
	c13.68,7.26,26.63,15.74,38.67,25.3c36.32,28.8,64.51,67.4,80.55,111.83c5.37,14.85,9.38,30.34,11.87,46.33
	C966.6,554.34,967.63,567.46,967.63,580.83z"/>
<linearGradient id="SVGID_9_" gradientUnits="userSpaceOnUse" x1="566.2087" y1="522.7534" x2="903.1628" y2="854.2727">
	<stop  offset="0" style="stop-color:#FFF23A;stop-opacity:0"/>
	<stop  offset="0.0108" style="stop-color:#FFF03A;stop-opacity:0.0108"/>
	<stop  offset="0.4982" style="stop-color:#F39139;stop-opacity:0.4982"/>
	<stop  offset="0.8383" style="stop-color:#EB5539;stop-opacity:0.8383"/>
	<stop  offset="1" style="stop-color:#E83E39"/>
</linearGradient>
<path class="st9" d="M819.83,775.65c0,12.14-0.85,24.07-2.53,35.74c-2.64,1.16-5.31,2.28-7.99,3.36
	c-6.29,2.53-12.72,4.81-19.28,6.81c-2.66,0.83-5.33,1.59-8.02,2.33c-5.89-1.68-11.82-3.22-17.8-4.66c-0.22-0.04-0.45-0.11-0.67-0.16
	c0.76-3.4,1.46-6.83,2.08-10.28c4.99-27.57,5.31-54.91,1.5-81.2c-0.58-3.85-1.21-7.64-1.97-11.42
	c-3.07-16.08-7.73-31.69-13.79-46.64c-5.26-12.97-11.55-25.42-18.86-37.28c-10.59-17.35-23.33-33.41-37.87-47.74
	c-13.39-3.22-26-8.13-37.62-14.44c-3.69-2.02-7.1-4.08-10.17-6.05c-0.63-0.4-1.25-0.81-1.86-1.23c-0.87-0.56-1.7-1.12-2.49-1.66
	c-1.12-0.81-2.24-1.59-3.31-2.37c-0.18-0.13-0.31-0.22-0.47-0.34c-0.99-0.76-1.95-1.48-2.91-2.22c-0.11-0.07-0.22-0.16-0.31-0.25
	c-0.78-0.6-1.52-1.23-2.28-1.81c-0.25-0.18-0.45-0.38-0.67-0.56c-0.31-0.27-0.6-0.49-0.87-0.74c-0.2-0.16-0.43-0.31-0.58-0.49
	c-0.29-0.22-0.56-0.45-0.81-0.65c-0.2-0.2-0.43-0.4-0.65-0.58c-0.09-0.09-0.18-0.18-0.29-0.25c-0.56-0.49-1.14-1.01-1.7-1.55
	c-3.38-3.14-6.2-6-8.42-8.42c2.58-1.32,5.06-2.49,7.41-3.49c2.91,2.17,5.89,4.21,8.96,6.16c0.74,0.45,1.48,0.92,2.22,1.37
	c0.65,0.43,1.3,0.83,1.95,1.21c0.11,0.07,0.22,0.13,0.34,0.2c0.2,0.13,0.47,0.29,0.74,0.45c0.27,0.16,0.58,0.34,0.9,0.52
	c0.2,0.13,0.45,0.25,0.67,0.38c0.31,0.18,0.63,0.36,0.99,0.56c0.25,0.13,0.49,0.29,0.76,0.43c0.76,0.45,1.63,0.9,2.58,1.39
	c0.11,0.07,0.22,0.13,0.36,0.18c1.01,0.54,2.08,1.1,3.25,1.66c0.18,0.09,0.34,0.16,0.52,0.25c1.16,0.58,2.4,1.16,3.69,1.75
	c0.87,0.4,1.79,0.81,2.73,1.19c0.67,0.31,1.37,0.6,2.06,0.9c3.36,1.39,7.08,2.8,11.08,4.12c12.56,4.14,25.84,6.72,39.59,7.52
	c16.86,11.51,32.25,25.04,45.77,40.22c9.29,10.37,17.71,21.5,25.19,33.32c8.64,13.64,16.01,28.17,21.9,43.44
	c1.41,3.58,2.71,7.21,3.96,10.88C815.26,720.68,819.83,747.64,819.83,775.65z"/>
</svg>
