<?xml version="1.0" encoding="utf-8"?>
<!-- Generator: Adobe Illustrator 24.1.3, SVG Export Plug-In . SVG Version: 6.00 Build 0)  -->
<svg version="1.1" id="Layer_1" xmlns="http://www.w3.org/2000/svg" xmlns:xlink="http://www.w3.org/1999/xlink" x="0px" y="0px"
	 viewBox="0 0 2834.65 2834.65" style="enable-background:new 0 0 2834.65 2834.65;" xml:space="preserve">
<style type="text/css">
	.st0{fill:none;stroke:#000000;stroke-width:164.4095;stroke-miterlimit:10;}
</style>
<rect x="706.56" y="663.13" width="166.6" height="1520.66"/>
<rect x="1136.95" y="663.13" width="166.6" height="1520.66"/>
<rect x="1573.02" y="661.92" width="166.6" height="1521.87"/>
<rect x="1980.15" y="661.92" width="166.6" height="1521.87"/>
<rect x="1180.01" y="867.7" transform="matrix(-1.836970e-16 1 -1 -1.836970e-16 2687.7683 161.1397)" width="166.6" height="1113.51"/>
<rect x="1509.74" y="1546.78" transform="matrix(-1.836970e-16 1 -1 -1.836970e-16 3693.53 507.4488)" width="166.6" height="1107.42"/>
<rect x="1722.43" y="403.96" transform="matrix(-1.836970e-16 1 -1 -1.836970e-16 2550.9402 -1060.5107)" width="166.6" height="682.5"/>
<rect x="921.75" y="447.94" transform="matrix(-1.836970e-16 1 -1 -1.836970e-16 1751.4833 -258.6227)" width="166.6" height="596.99"/>
<circle class="st0" cx="1434.92" cy="1424.45" r="1293.34"/>
</svg>
